<?xml version="1.0" encoding="UTF-8"?>
<svg version="1.1" xmlns="http://www.w3.org/2000/svg" width="192" height="192">
<path d="M0 0 C63.36 0 126.72 0 192 0 C192 63.36 192 126.72 192 192 C128.64 192 65.28 192 0 192 C0 128.64 0 65.28 0 0 Z " fill="#010101" transform="translate(0,0)"/>
<path d="M0 0 C1.32 0 2.64 0 4 0 C4.33 11.22 4.66 22.44 5 34 C7.64 30.04 10.28 26.08 13 22 C14.65 22 16.3 22 18 22 C16.36866718 26.51998557 14.01251913 29.90372163 11.14453125 33.71875 C9.8087427 35.93108955 9.8087427 35.93108955 10.0703125 38.390625 C11.26586638 41.74621321 13.02490069 44.33195654 15.0625 47.25 C19 52.92442882 19 52.92442882 19 54 C16.765625 54.3359375 16.765625 54.3359375 14 54 C11.796875 51.6640625 11.796875 51.6640625 9.75 48.625 C8.72132812 47.12839844 8.72132812 47.12839844 7.671875 45.6015625 C6 43 6 43 5 41 C5 56.18 5 71.36 5 87 C7.31 83.37 9.62 79.74 12 76 C13.98 76 15.96 76 18 76 C16.01559741 79.54357605 14.10696744 82.85544941 11.6875 86.125 C9.77244633 88.77507658 9.77244633 88.77507658 10.140625 91.2890625 C11.23774607 94.74998077 12.9866572 97.27718809 15.0625 100.25 C19 105.92442882 19 105.92442882 19 107 C16.2734375 107.40625 16.2734375 107.40625 13 107 C11.18103004 104.78560178 9.94963415 102.97917909 8.625 100.5 C8.27050781 99.87996094 7.91601562 99.25992188 7.55078125 98.62109375 C6.68038396 97.09201743 5.83744876 95.54736725 5 94 C4.67 98.29 4.34 102.58 4 107 C2.68 107 1.36 107 0 107 C0 71.69 0 36.38 0 0 Z " fill="#EEEEEE" transform="translate(56,21)"/>
<path d="M0 0 C4.02657765 1.52115156 6.27764745 3.93565409 8.265625 7.78125 C10.05599399 13.19044994 10.12158681 19.1224863 8.046875 24.4453125 C5.75046424 28.38409298 3.35688077 31.3402359 -1 33 C-5.57486683 33.66543518 -7.38087407 33.41671938 -11.25 30.8125 C-15.83826653 26.11995469 -17.45314711 22.79970492 -17.5625 16.1875 C-17.45568721 10.20598353 -16.45271749 6.82445532 -12.5078125 2.35546875 C-8.86702526 -0.91746693 -4.64177013 -0.42710732 0 0 Z " fill="#E8E8E8" transform="translate(96,43)"/>
<path d="M0 0 C4.08961126 2.64164873 7.44055964 5.32167893 9 10 C9.94259819 22.56193353 9.94259819 22.56193353 6 28 C2.63648724 31.03536517 0.31873328 32.81899739 -4.1875 33.4375 C-9.19816191 32.86250601 -11.73975255 30.7505749 -15 27 C-18.45423125 21.7610826 -17.67394695 14.983832 -17 9 C-15.49922099 5.32279247 -13.310821 3.03961665 -10.1875 0.5625 C-6.63379354 -0.35131023 -3.56950725 -0.86182698 0 0 Z " fill="#EBEBEB" transform="translate(96,96)"/>
<path d="M0 0 C4.78893551 2.4414181 7.73191149 5.11488628 10 10 C10.78550677 16.42526884 10.94830226 22.60398692 7 28 C3.80336813 31.501073 1.26651477 33.35572173 -3.4375 33.8125 C-6.46275385 33.65893381 -7.72133194 33.22521777 -10.09765625 31.3046875 C-14.53340305 26.36798367 -16.1499812 22.80958996 -16.25 16.125 C-16.28867188 14.58199219 -16.28867188 14.58199219 -16.328125 13.0078125 C-15.79831603 8.1512303 -13.60320235 5.61691149 -10.25 2.1875 C-6.35214332 -0.43605738 -4.60929908 -0.74078021 0 0 Z " fill="#EEEEEE" transform="translate(115,137)"/>
<path d="M0 0 C2.9375 2 2.9375 2 5 4 C5.515625 3.34 6.03125 2.68 6.5625 2 C9 0 9 0 12.4375 -0.625 C16.1030538 0.01807961 16.61228064 0.18249866 18.875 2.8125 C21.65875383 6.98813075 22.12359915 9.63975973 22.09765625 14.54296875 C22.09443359 15.61611328 22.09121094 16.68925781 22.08789062 17.79492188 C22.07532227 19.47424805 22.07532227 19.47424805 22.0625 21.1875 C22.05798828 22.31865234 22.05347656 23.44980469 22.04882812 24.61523438 C22.03703498 27.41020927 22.0205765 30.2050782 22 33 C20.35 33 18.7 33 17 33 C16.97494385 32.25314941 16.9498877 31.50629883 16.92407227 30.73681641 C16.80831787 27.36602733 16.68549872 23.99553217 16.5625 20.625 C16.52318359 19.449375 16.48386719 18.27375 16.44335938 17.0625 C16.40146484 15.94101563 16.35957031 14.81953125 16.31640625 13.6640625 C16.27974854 12.62717285 16.24309082 11.5902832 16.20532227 10.52197266 C16.15835777 8.00574834 16.15835777 8.00574834 15 6 C12.69 6 10.38 6 8 6 C6.98412022 9.04763934 6.80195594 11.34718967 6.68359375 14.54296875 C6.64169922 15.61611328 6.59980469 16.68925781 6.55664062 17.79492188 C6.51732422 18.91447266 6.47800781 20.03402344 6.4375 21.1875 C6.39431641 22.31865234 6.35113281 23.44980469 6.30664062 24.61523438 C6.20050901 27.41003354 6.09845615 30.20492162 6 33 C4.35 33 2.7 33 1 33 C0.97494385 32.25314941 0.9498877 31.50629883 0.92407227 30.73681641 C0.80831787 27.36602733 0.68549872 23.99553217 0.5625 20.625 C0.52318359 19.449375 0.48386719 18.27375 0.44335938 17.0625 C0.38051758 15.38027344 0.38051758 15.38027344 0.31640625 13.6640625 C0.27974854 12.62717285 0.24309082 11.5902832 0.20532227 10.52197266 C0.15835777 8.00574834 0.15835777 8.00574834 -1 6 C-4.63017679 5.66947014 -4.63017679 5.66947014 -7.75 7.3125 C-9.94707836 10.27855578 -10.15733157 13.10015094 -10.31640625 16.66796875 C-10.35830078 17.56064453 -10.40019531 18.45332031 -10.44335938 19.37304688 C-10.50233398 20.76620117 -10.50233398 20.76620117 -10.5625 22.1875 C-10.60568359 23.12787109 -10.64886719 24.06824219 -10.69335938 25.03710938 C-10.79938665 27.35792854 -10.90145029 29.67885325 -11 32 C-12.32 32 -13.64 32 -15 32 C-15 21.77 -15 11.54 -15 1 C-13.68 1 -12.36 1 -11 1 C-10.67 1.66 -10.34 2.32 -10 3 C-9.649375 2.505 -9.29875 2.01 -8.9375 1.5 C-5.9298418 -0.82850957 -3.69312806 -0.44572235 0 0 Z " fill="#DEDEDE" transform="translate(71,137)"/>
<path d="M0 0 C5.73704291 4.84461401 5.73704291 4.84461401 6.23828125 8.953125 C6.41774475 14.50704803 5.73664814 17.60394337 2 22 C-0.88861709 23.44430855 -2.79647701 23.37688506 -6 23 C-8.8125 20.5625 -8.8125 20.5625 -11 18 C-11.33 17.67 -11.66 17.34 -12 17 C-12.53146616 11.80731428 -12.85321507 7.42202511 -10.125 2.875 C-6.720171 -0.12926088 -4.52451701 -0.53229612 0 0 Z " fill="#080808" transform="translate(115,142)"/>
<path d="M0 0 C3.97245401 0.70936679 5.67231707 1.79731707 8.5 4.625 C10.36850084 8.36200169 10.04216425 12.55565225 9.5 16.625 C8.19211118 19.56335112 7.0908909 20.47511181 4.5 22.625 C1 23.8125 1 23.8125 -2.5 23.625 C-5.78576549 20.98210167 -8.23460324 18.73300856 -8.7734375 14.453125 C-8.94454255 10.10968915 -9.07574828 6.61569764 -6.4375 3 C-3.5 0.625 -3.5 0.625 0 0 Z " fill="#070707" transform="translate(91.5,100.375)"/>
<path d="M0 0 C3.97245401 0.70936679 5.67231707 1.79731707 8.5 4.625 C10.36994084 8.36488168 10.03553483 12.55244447 9.5 16.625 C8.21877086 19.67839654 7.23107512 20.46289886 4.5 22.625 C1.61288242 23.47483703 -0.61288242 23.47483703 -3.5 22.625 C-6.89205796 19.93962079 -8.14613939 18.41750704 -8.9765625 14.2109375 C-9.22208001 9.93376399 -8.9694991 6.54984591 -6.4375 3 C-3.5 0.625 -3.5 0.625 0 0 Z " fill="#050505" transform="translate(91.5,47.375)"/>
<path d="M0 0 C3.69230769 0.69230769 3.69230769 0.69230769 5 2 C5.04063832 3.66617115 5.042721 5.33388095 5 7 C3.34385343 7.38218767 1.67542976 7.71395102 0 8 C-1 7 -1 7 -1.125 4 C-1 1 -1 1 0 0 Z " fill="#E6CBA2" transform="translate(134,162)"/>
</svg>
